<svg width="82" height="84" viewBox="0 0 82 84" fill="none" xmlns="http://www.w3.org/2000/svg">
<rect x="56.9294" y="21.2921" width="14.5559" height="61.555" rx="7.27793" fill="#9F9F9F"/>
<rect x="56.9294" y="21.2921" width="14.5559" height="61.555" rx="7.27793" fill="#B36862"/>
<rect width="14.1565" height="23.0047" rx="7.07825" transform="matrix(0.964745 -0.263186 0.445885 0.895091 34.0078 28.8156)" fill="#B36862"/>
<rect width="14.0104" height="56.2025" rx="7.00521" transform="matrix(0.950738 0.309994 -0.511577 0.859237 32.6449 30.8969)" fill="#B36862"/>
<rect x="5.36145" y="4.27216" width="14.5559" height="77.9889" rx="7.27793" fill="#B36862"/>
<rect x="71.2417" y="4.27216" width="12.0787" height="46.7378" rx="6.03934" transform="rotate(90 71.2417 4.27216)" fill="#B36862"/>
<rect x="0.891357" y="1.10565" width="15.3384" height="80.1252" rx="7.66922" fill="#55585D"/>
<rect width="13.9971" height="65.6504" rx="6.99857" transform="matrix(0.949433 0.313971 -0.516918 0.856035 34.8271 22.2534)" fill="#55585D"/>
<rect width="14.708" height="61.4167" rx="7.35398" transform="matrix(0.965849 -0.259105 0.439914 0.89804 29.0172 26.8783)" fill="#55585D"/>
<rect x="53.6406" y="19.6759" width="14.5559" height="61.555" rx="7.27793" fill="#55585D"/>
<rect x="68.1964" y="0.118774" width="13.012" height="46.7378" rx="6.50599" transform="rotate(90 68.1964 0.118774)" fill="#55585D"/>
<rect x="77.3352" y="68.0156" width="2.51806" height="43.5778" rx="1.25903" transform="rotate(-180 77.3352 68.0156)" fill="#57575F"/>
<rect x="81.2273" y="80.6625" width="2.51806" height="43.5778" rx="1.25903" transform="rotate(-180 81.2273 80.6625)" fill="#57575F"/>
<path d="M81.3268 34.9613C81.3268 35.7116 80.7186 36.3199 79.9682 36.3199C79.2179 36.3199 78.6096 35.7116 78.6096 34.9613C78.6096 34.2109 79.2179 33.6027 79.9682 33.6027C80.7186 33.6027 81.3268 34.2109 81.3268 34.9613Z" fill="#E2D7B7"/>
<path d="M77.4349 70.4386C77.4349 71.189 76.8266 71.7972 76.0763 71.7972C75.3259 71.7972 74.7177 71.189 74.7177 70.4386C74.7177 69.6883 75.3259 69.08 76.0763 69.08C76.8266 69.08 77.4349 69.6883 77.4349 70.4386Z" fill="#E2D7B7"/>
</svg>
